<svg xmlns="http://www.w3.org/2000/svg" viewBox="0 0 512 512">
  <rect fill="#16a34a" width="512" height="512" rx="100"/>
  <g fill="#fff">
    <ellipse cx="256" cy="380" rx="60" ry="30" opacity="0.3"/>
    <path d="M256 120c-20 0-35 80-35 160s15 100 35 100 35-20 35-100-15-160-35-160z" fill="#22c55e"/>
    <path d="M256 180c-40-40-100-40-120 0 20 60 80 80 120 40z" fill="#4ade80"/>
    <path d="M256 180c40-40 100-40 120 0-20 60-80 80-120 40z" fill="#4ade80"/>
    <path d="M256 120c-5 0-8 80-8 160s3 100 8 100 8-20 8-100-3-160-8-160z" fill="#16a34a"/>
  </g>
</svg>
